<?xml version="1.0" encoding="UTF-8"?><svg id="Layer_1" xmlns="http://www.w3.org/2000/svg" viewBox="0 0 1822.95 647.07"><defs><style>.cls-1{fill:#fff;fill-rule:evenodd;}</style></defs><g><g><path class="cls-1" d="M990.45,323.53c0,99.09-80.34,179.43-179.43,179.43-56.52,0-106.94-26.15-139.79-67l19.25-11.59c28.82,34.44,72.11,56.34,120.54,56.34,86.82,0,157.2-70.38,157.2-157.18,0-18.83-3.32-36.87-9.4-53.59l19.49-11.33c7.84,20.13,12.13,42.02,12.13,64.92Z"/><path class="cls-1" d="M975.61,252.01l-19.38,11.23c-23.64-56.91-79.74-96.91-145.21-96.91-86.81,0-157.18,70.39-157.18,157.2,0,35.82,11.99,68.85,32.19,95.29l-19.15,11.51c-22.16-29.84-35.26-66.79-35.26-106.8,0-99.09,80.32-179.43,179.41-179.43,73.68,0,136.95,44.4,164.59,107.91Z"/><path class="cls-1" d="M756.1,378.48l-34.84,20.07c-1.69,.97-3.8-.25-3.8-2.19v-40.17l38.64,22.29Z"/><path class="cls-1" d="M865.97,378.48l34.84,20.07c1.69,.97,3.8-.25,3.8-2.19v-40.17l-38.64,22.29Z"/><polygon class="cls-1" points="759.82 325.56 759.82 372.47 717.46 348.01 717.46 301.1 759.82 325.56"/><path class="cls-1" d="M759.82,268.46v48.94l-42.36-24.46v-44.54c0-1.95,2.11-3.17,3.8-2.19l38.56,22.25Z"/><polygon class="cls-1" points="807.48 296 807.48 344.95 798.73 339.92 766.88 321.59 766.88 272.57 807.48 296"/><polygon class="cls-1" points="855.17 272.57 855.17 321.44 814.56 344.81 814.56 296.01 855.17 272.57"/><path class="cls-1" d="M904.61,248.4v44.57l-42.37,24.4v-48.89l38.58-22.27c1.69-.97,3.8,.24,3.8,2.19Z"/></g><polygon class="cls-1" points="766.9 303.13 766.9 323.55 766.88 323.53 766.88 303.13 766.9 303.13"/></g><g><polygon class="cls-1" points="100.48 248.24 100.48 272.86 156.18 272.86 156.18 399.37 183.81 399.37 183.81 272.86 239.51 272.86 239.51 248.24 100.48 248.24 100.48 248.24"/><polygon class="cls-1" points="371.64 308.05 284.42 308.05 284.42 248.24 256.78 248.24 256.78 399.37 284.42 399.37 284.42 332.66 371.64 332.66 371.64 399.37 399.27 399.37 399.27 248.24 371.64 248.24 371.64 308.05 371.64 308.05"/><polygon class="cls-1" points="454.54 331.58 541.76 331.58 541.76 310.21 454.54 310.21 454.54 271.35 550.4 271.35 550.4 248.24 426.91 248.24 426.91 399.37 552.56 399.37 552.56 376.27 454.54 376.27 454.54 331.58 454.54 331.58"/></g><g><polygon class="cls-1" points="1019.32 399.36 1047.39 399.36 1047.39 248.24 1019.32 248.24 1019.32 399.36 1019.32 399.36"/><path class="cls-1" d="M1179.09,341.08c25.04-.21,35.19-10.57,35.19-35.87v-21.15c0-25.67-10.57-35.83-35.83-35.83h-102.36v151.13h27.66v-56.55h46.61l39.51,56.55h30.88l-41.66-58.29Zm-75.33-19.03v-52.66h64.55c14,0,18.36,4.1,18.36,18.15v16.41c0,14.04-4.36,18.1-18.36,18.1h-64.55Z"/><path class="cls-1" d="M1343.58,341.08c25.04-.21,35.19-10.57,35.19-35.87v-21.15c0-25.67-10.57-35.83-35.83-35.83h-102.32v151.13h27.62v-56.55h46.61l39.55,56.55h30.83l-41.66-58.29Zm-75.33-19.03v-52.66h64.55c14.04,0,18.36,4.1,18.36,18.15v16.41c0,14.04-4.31,18.1-18.36,18.1h-64.55Z"/><path class="cls-1" d="M1512.01,248.24h-68.69c-27.62,0-40.14,12.52-40.14,40.14v70.81c0,27.66,12.52,40.18,40.14,40.18h68.69c27.62,0,40.14-12.52,40.14-40.18v-70.81c0-27.62-12.52-40.14-40.14-40.14Zm12.52,105.79c0,15.78-5.84,21.57-21.61,21.57h-50.5c-15.78,0-21.61-5.37-21.61-21.57v-60.44c0-16.2,5.84-21.61,21.61-21.61h50.5c15.78,0,21.61,5.84,21.61,21.61v60.44Z"/><path class="cls-1" d="M1680.82,341.08c25.04-.21,35.19-10.57,35.19-35.87v-21.15c0-25.67-10.57-35.83-35.83-35.83h-102.36v151.13h27.66v-56.55h46.61l39.51,56.55h30.88l-41.66-58.29Zm-75.33-19.03v-52.66h64.55c14.04,0,18.36,4.1,18.36,18.15v16.41c0,14.04-4.31,18.1-18.36,18.1h-64.55Z"/><text/></g></svg>