<svg viewBox="0 0 131.5 40" xmlns="http://www.w3.org/2000/svg"><g fill="#fff"><g fill-rule="evenodd"><path d="m72.17.67h2.9l.09 11.92-2.43.21-2.15-5.13.17 4.7h-2.85v-11.07l2.49-.5 2.21 5.43-.43-5.55z"/><path d="m91.67 10.7v3.16l-5.36-.38v-12.85l5.36-.43v3.42l-2.3.09v1.89h1.95v2.74h-1.9v2.38h2.25z"/><path d="m45.25 8.39.06-2.99h-2.07v-2.32h2.39l.29-3.08h-5.83v14.2l3.15-.58v-5.24h2.01z"/><path d="m49.55.86c-3.08 0-3.8 2.68-3.8 5.99s.79 5.99 3.8 5.99 3.8-2.68 3.8-5.99-.73-5.99-3.8-5.99zm-.03 9.6c-.41 0-.48-1.6-.48-3.57s.06-3.57.48-3.57.48 1.6.48 3.57-.07 3.57-.48 3.57z"/><path d="m59.65 8.06s1.33-.87 1.33-3.07-1.49-4.1-3.41-4.1h-3.8v11.7h2.98l.13-3.67 1.21 4.1 3.11-.26zm-2.85-1.28v-3.25s.94-.1.94 1.57-.94 1.68-.94 1.68z"/><path d="m61.07.9 6.47.51v2.99h-1.72v8.12h-3.11v-8.63h-1.65v-2.99z"/><path d="m79.37 1.81 6.56-.34v2.99h-1.77v8.83h-3.11v-8.49h-1.69v-2.99z"/></g><path d="m78.99 1.22h-3.2v11.71h3.2z"/><path d="m9.69 39.78c-6.44-.04-9.67-3.9-9.69-11.58 0-5.73 1.84-9.38 5.53-10.94 1.26-.51 2.68-.77 4.25-.77 3.79 0 6.47 1.47 8.03 4.41.75 1.41 1.16 3.04 1.25 4.89-3.39.13-5.9.18-7.55.16-.13-2.47-.65-3.82-1.57-4.03-.11-.02-.21-.03-.32-.03-1 0-1.63.95-1.89 2.85-.11.92-.16 2.07-.16 3.45 0 3.54.48 5.53 1.44 5.98.19.09.39.13.61.13.81 0 1.36-.54 1.66-1.63.17-.72.28-1.71.32-2.94l7.61.16c-.11 5.41-2.29 8.61-6.56 9.59-.92.19-1.91.29-2.97.29z"/><path d="m31.08 40s-.87-2.21-2.62-6.62c-.13-.3-.25-.59-.35-.86-.02 0-.36.02-1.02.06l.13 6.4s-2.33.01-6.94.03c0 0 .04-5.63.13-16.88v-4.96c2.56-.51 4.85-.77 6.87-.77 5.07 0 8.34 1.51 9.78 4.54.51 1.09.77 2.33.77 3.74-.02 2.92-1.19 5.02-3.52 6.3.72 1.62 2.05 4.39 3.97 8.31-.04 0-2.44.23-7.19.7zm-4-11.99c2.49.11 3.75-.9 3.77-3.01 0-1.62-.63-2.63-1.89-3.04-.32-.11-.67-.16-1.06-.16-.28 0-.59.03-.93.1l.1 6.11z"/><path d="m39.24 39.14s-.09-7.22-.26-21.65v-.38s4.75-.07 14.26-.22h.06s.02 2.04.06 5.98c-.04 0-2.54.05-7.48.16v2.53s1.98-.01 5.95-.03h.06s.01 1.76.03 5.28v.19s-2.01-.01-5.92-.03c.06 1.62.1 2.43.1 2.43s2.4.07 7.19.22h.06s-.02 1.99-.06 5.85c0 0-4.37-.11-13.11-.32h-.96z"/><path d="m53.92 38.75s1.35-6.63 4.06-19.89c.13-.64.26-1.27.38-1.89l10.3-.16s1.53 7.71 4.6 22.99h-7.39s-.16-1.15-.48-3.45v-.06h-1.53c-1.11-.02-1.99-.03-2.65-.03l-.29 2.53s-2.2-.01-6.59-.03h-.42zm9.37-16.92c-.41 2.43-.86 5.51-1.38 9.24h2.75l-1.38-9.24z"/><path d="m72.25 23.4s-.01-2.16-.03-6.36c.02 0 5.34-.02 15.96-.06 0 .04-.02 2.19-.06 6.43-.04 0-1.52-.01-4.44-.03 0 4.26.04 9.59.13 15.99-.04 0-2.38.01-7 .03 0-.04-.02-5.38-.06-16.02l-4.48.03z"/><path d="m89.58 39.3s-.03-6.66-.1-19.99c-.02-.77-.03-1.51-.03-2.24.04 0 2.38-.01 7-.03 0 .04.05 7.46.16 22.26z"/><path d="m101.73 39.68c-1.47-8.63-2.82-15.88-4.06-21.74l7.23-.06c.6 5.73 1.25 10.95 1.95 15.64l2.14-16.63 7.32-.03-4.28 22.96s-3.03-.03-9.08-.1c-.43 0-.83-.01-1.22-.03z"/><path d="m117.46 38.91s-.08-7.23-.26-21.55c0 0 4.72-.06 14.17-.19h.06s.02 2.01.06 5.92c-.04 0-2.5.06-7.39.19v2.72h.19c1.17.02 3.06.01 5.66-.03h.06s0 1.73.03 5.18v.13s-1.98-.01-5.82-.03l.1 2.11 7.16-.1s-.02 1.97-.06 5.79c-.04 0-4.7-.04-13.97-.13z"/></g></svg>